<?xml version="1.0" encoding="iso-8859-1"?>
<!-- Generator: Adobe Illustrator 19.0.0, SVG Export Plug-In . SVG Version: 6.00 Build 0)  -->
<svg version="1.1" id="Layer_1" xmlns="http://www.w3.org/2000/svg" xmlns:xlink="http://www.w3.org/1999/xlink" x="0px" y="0px"
	 viewBox="0 0 512 512" style="enable-background:new 0 0 512 512;" xml:space="preserve">
<path style="fill:#E6E5E5;" d="M416.944,130.016l92.495,89.772C491.845,95.555,385.091,0,256,0C114.615,0,0,114.615,0,256
	c0,139.851,112.147,253.493,251.414,255.942l-155.95-152.71L416.944,130.016z"/>
<path style="fill:#CCCBCA;" d="M509.439,219.788l-92.495-89.772L95.464,359.232l155.95,152.71c1.527,0.027,3.053,0.058,4.586,0.058
	c141.385,0,256-114.615,256-256C512,243.706,511.114,231.62,509.439,219.788z"/>
<g>
	<polygon style="fill:#FFFFFF;" points="362.736,347.888 362.736,441.272 244.448,347.888 	"/>
	<path style="fill:#FFFFFF;" d="M404.76,363.872H107.24c-9.552,0-17.376-7.816-17.376-17.376V142.368
		c0-9.552,7.816-17.376,17.376-17.376h297.512c9.552,0,17.376,7.816,17.376,17.376v204.136
		C422.128,356.056,414.312,363.872,404.76,363.872z"/>
</g>
<g>
	<rect x="149.26" y="176.35" style="fill:#999999;" width="213.47" height="16"/>
	<rect x="149.26" y="231.57" style="fill:#999999;" width="213.47" height="16"/>
	<rect x="149.26" y="286.79" style="fill:#999999;" width="213.47" height="16"/>
</g>
<g>
</g>
<g>
</g>
<g>
</g>
<g>
</g>
<g>
</g>
<g>
</g>
<g>
</g>
<g>
</g>
<g>
</g>
<g>
</g>
<g>
</g>
<g>
</g>
<g>
</g>
<g>
</g>
<g>
</g>
</svg>
